<?xml version="1.0" encoding="UTF-8"?>
<svg id="Layer_2" data-name="Layer 2" xmlns="http://www.w3.org/2000/svg" xmlns:xlink="http://www.w3.org/1999/xlink" viewBox="0 0 130.79 32.04">
  <defs>
    <style>
      .cls-1 {
        fill: url(#linear-gradient);
      }

      .cls-1, .cls-2, .cls-3 {
        stroke-width: 0px;
      }

      .cls-2 {
        fill: #010101;
        fill-rule: evenodd;
      }

      .cls-3 {
        fill: url(#linear-gradient-2);
      }
    </style>
    <linearGradient id="linear-gradient" x1="0" y1="36.3" x2="25.38" y2="36.3" gradientTransform="translate(0 61.68) scale(1 -1)" gradientUnits="userSpaceOnUse">
      <stop offset="0" stop-color="#6652a3"/>
      <stop offset="1" stop-color="#62cced"/>
    </linearGradient>
    <linearGradient id="linear-gradient-2" x1=".55" y1="54.11" x2="24.87" y2="54.11" gradientTransform="translate(0 61.68) scale(1 -1)" gradientUnits="userSpaceOnUse">
      <stop offset="0" stop-color="#c24f9d"/>
      <stop offset="1" stop-color="#fdd700"/>
    </linearGradient>
  </defs>
  <g id="Layer_1-2" data-name="Layer 1">
    <path class="cls-1" d="M0,23.63l4.68-3.62c2.49,3.28,5.13,4.79,8.07,4.79s5.5-1.49,7.87-4.75l4.75,3.54c-3.43,4.69-7.69,7.17-12.62,7.17S3.54,28.3,0,23.63Z"/>
    <path class="cls-3" d="M12.74,7.88l-8.34,7.26L.55,10.63,12.76,0l12.11,10.63-3.87,4.5-8.26-7.25Z"/>
    <path class="cls-2" d="M59.17,7.28c0,1.57,1.13,2.71,2.69,2.71h0c1.5,0,2.66-1.14,2.66-2.71s-1.16-2.66-2.66-2.66-2.69,1.14-2.69,2.66ZM57.46,5.68v20.31h-4.64V5.68h4.64ZM43.34,26.29c-2.85,0-5.22-.93-7.14-2.8-1.92-1.89-2.87-4.31-2.87-7.27s.97-5.43,2.9-7.35c1.95-1.94,4.32-2.9,7.14-2.9,3.48,0,6.56,1.52,8.36,3.89l-3.14,3.33c-1.5-1.63-3.14-2.45-4.9-2.45-1.5,0-2.74.5-3.77,1.54-1,1.04-1.5,2.34-1.5,3.91s.5,2.8,1.5,3.83c1.03,1.01,2.27,1.52,3.74,1.52,1.92,0,3.61-.85,5.01-2.53l3.27,3.17c-.9,1.2-2.11,2.18-3.61,2.95-1.5.77-3.16,1.14-4.98,1.14ZM64.2,11.3v14.7h-4.67v-14.7h4.67ZM67.55,24.16c1.45,1.44,3.29,2.16,5.59,2.16,3.08,0,5.69-1.52,6.96-3.97l-3.72-2.24c-.53,1.14-1.77,1.89-3.11,1.89-1.87,0-3.27-1.44-3.27-3.38-.02-.88.32-1.73.92-2.37.63-.64,1.42-.96,2.4-.96,1.34,0,2.37.64,3.11,1.89l3.72-1.97c-1.24-2.8-3.9-4.29-6.93-4.29-2.32,0-4.19.72-5.64,2.16-1.45,1.44-2.16,3.27-2.16,5.54s.71,4.1,2.14,5.54ZM96.27,25.99h-5.54l-4.3-5.83-.68.64v5.19h-4.64V5.68h4.64v9.88l4.37-4.26h5.67l-6.24,5.91,6.72,8.79ZM96.58,6.32v12.03c0,5.8,4.01,7.99,8.04,7.99s8.04-2.18,8.04-7.99V6.32h-4.98v11.95c0,2.16-1.27,3.27-3.06,3.27s-3.08-1.06-3.08-3.27V6.32h-4.95ZM123.67,10.93c2.08,0,3.77.75,5.11,2.24,1.34,1.46,2,3.3,2,5.46s-.68,3.99-2.03,5.51c-1.35,1.49-3.03,2.24-5.06,2.24-1.61,0-3.01-.53-4.14-1.6v7.27h-4.67V11.3h4.59v1.36c1.13-1.15,2.53-1.73,4.19-1.73h0ZM122.77,15.29c1.9,0,3.27,1.46,3.27,3.38h0c.01.89-.32,1.75-.92,2.4-.61.67-1.4.99-2.34.99s-1.74-.32-2.37-.99c-.61-.67-.92-1.46-.92-2.4,0-1.92,1.4-3.38,3.29-3.38Z"/>
  </g>
</svg>